<svg xmlns="http://www.w3.org/2000/svg" viewBox="0 0 27.5 24.19"><defs><style>.cls-1{fill:#00a7e1;stroke:#00a7e1;}.cls-1,.cls-2{stroke-miterlimit:10;}.cls-2{fill:#ff9b42;stroke:#000;stroke-width:0.2px;}.cls-3{fill:#71c386;}.cls-4{fill:#fff;}</style></defs><title>create_folder</title><g id="Layer_2" data-name="Layer 2"><g id="Layer_1-2" data-name="Layer 1"><polygon class="cls-1" points="11.87 3.68 9.59 0.5 0.5 0.5 0.5 3.68 0.5 23.69 26.87 23.69 26.87 6.87 14.14 6.87 11.87 3.68"/><polygon class="cls-2" points="14.14 6.87 26.87 6.87 26.87 3.68 11.87 3.68 14.14 6.87"/><circle class="cls-3" cx="22.04" cy="18.68" r="5.46"/><path class="cls-4" d="M24.77,18.23H22.5V16a.46.46,0,1,0-.91,0v2.27H19.32a.46.46,0,1,0,0,.91h2.27v2.27a.46.46,0,1,0,.91,0V19.14h2.27a.46.46,0,1,0,0-.91Z"/></g></g></svg>