<svg xmlns="http://www.w3.org/2000/svg" viewBox="0 0 34.26 39.25"><defs><style>.cls-1{fill:#ff9b42;}.cls-1,.cls-2,.cls-3{stroke:#000;stroke-miterlimit:10;stroke-width:0.2px;}.cls-2{fill:#d9e5d6;}.cls-3{fill:#f7a072;}</style></defs><title>Logo (2)</title><g id="Layer_2" data-name="Layer 2"><g id="Layer_1-2" data-name="Layer 1"><g id="header"><g id="Logo"><path class="cls-1" d="M33.6,15.14c0,5.34-6.59,12-16,12s-17-6.66-17-12S7.16,5,16.57,5c7.05,0,14.44,1.53,17,5.13C34.46,11.34,33.6,13.81,33.6,15.14Z"/><polygon class="cls-2" points="0.1 15.95 21.06 20.87 34.16 10.33 34.16 31.41 21.06 39.14 0.1 33.52 0.1 15.95"/><path class="cls-3" d="M20.84,10.45V8.3s0-1.72-1.31-2.15,2-.43,2-.43,3.27,0,3.93.43S28.7,7.87,28.7,7.87l-2-2.15s-4.59-2.57-7.21-1.28,1.31-.86,1.31-.86,7.21-1.72,7.86-.86c.15.19-.37-.28-1.31-.43a17.6,17.6,0,0,0-2.62,0H21.5L17.57,3.58,16.91.14,15,1l1.31,2.58a26.84,26.84,0,0,0-9.17,0c-.64.1,1.31,0,3.93.43A27.36,27.36,0,0,0,15,4.44S8.4,4,5.78,7.87a46.9,46.9,0,0,0,4.58-1.29A8.94,8.94,0,0,1,15,6.15S12.33,7.44,12.33,10c0,.43.7-.77,2-2.15a4.77,4.77,0,0,1,2.62-1.29S19.53,6.58,20.84,10.45Z"/></g></g></g></g></svg>