<svg xmlns="http://www.w3.org/2000/svg" viewBox="0 0 20.93 20.93"><title>search_icon</title><g id="Layer_2" data-name="Layer 2"><g id="Layer_1-2" data-name="Layer 1"><g id="header"><g id="search_box"><g id="search_icon"><path d="M20.37,17.64l-4.71-4.71a9.19,9.19,0,0,1-2.73,2.72l4.71,4.72a1.93,1.93,0,1,0,2.73-2.73Z"/><path d="M16,8a8,8,0,1,0-8,8A8,8,0,0,0,16,8ZM8,15c-3.31,0-7-3.69-7-7S4.69,1,8,1s7,3.69,7,7S11.31,15,8,15Z"/><path d="M3.46,8h1.3A3.24,3.24,0,0,1,8,4.76V3.46A4.55,4.55,0,0,0,3.46,8Z"/></g></g></g></g></g></svg>