<svg xmlns="http://www.w3.org/2000/svg" viewBox="0 0 28 26.48"><defs><style>.cls-1{fill:#ff9b42;stroke:#000;stroke-width:0.2px;}.cls-1,.cls-2{stroke-miterlimit:10;}.cls-2{fill:#00a7e1;stroke:#00a7e1;}</style></defs><title>upload</title><g id="Layer_2" data-name="Layer 2"><g id="Layer_1-2" data-name="Layer 1"><path class="cls-1" d="M18.71,4.57,14.44.27a.65.65,0,0,0-.88,0L9.29,4.57a.63.63,0,0,0,.88.91l3.2-3.23V13.83a.63.63,0,0,0,1.26,0V2.25l3.2,3.23a.69.69,0,0,0,.88,0A.67.67,0,0,0,18.71,4.57Z"/><path class="cls-2" d="M27.41,14.9,23.89,7.24a.69.69,0,0,0-.6-.41h-3a.63.63,0,0,0-.63.63.63.63,0,0,0,.63.63h2.6l3.21,7.22H22.23a3.31,3.31,0,0,0-3.21,2,3.5,3.5,0,0,1-3.2,2.07H12.18a3.77,3.77,0,0,1-1.92-.6A3.7,3.7,0,0,1,9,17.32a3.52,3.52,0,0,0-3.21-2H1.91l3.8-7.22h2a.63.63,0,0,0,.63-.63.63.63,0,0,0-.63-.63H5.33a.68.68,0,0,0-.56.38L.63,14.84a.61.61,0,0,0-.13.31V23a3.1,3.1,0,0,0,3.23,3H24.27a3.1,3.1,0,0,0,3.23-3V15.15A1.06,1.06,0,0,0,27.41,14.9Z"/></g></g></svg>